<?xml version="1.0" encoding="utf-8"?>
<!-- Generator: Adobe Illustrator 22.1.0, SVG Export Plug-In . SVG Version: 6.00 Build 0)  -->
<svg version="1.1" baseProfile="basic" xmlns="http://www.w3.org/2000/svg" xmlns:xlink="http://www.w3.org/1999/xlink" x="0px"
	 y="0px" viewBox="0 0 48 48" xml:space="preserve">
<g id="参考线" display="none">
</g>
<g id="背景">
</g>
<g id="辅助" display="none" opacity="0.73">
	<path display="inline" fill="#3EA3FF" d="M24,0.1c13.2,0,23.9,10.7,23.9,23.9S37.2,47.9,24,47.9S0.2,37.2,0.2,24S10.8,0.1,24,0.1
		 M24,0C10.7,0,0,10.7,0,24s10.7,24,24,24s24-10.7,24-24S37.3,0,24,0L24,0z"/>
	<path display="inline" fill="#3EA3FF" d="M41.9,0.1v47.7H6.2V0.1H41.9 M42,0H6v48h36V0L42,0z"/>
	<path display="inline" fill="#3EA3FF" d="M47.9,6.1v35.7H0.2V6.1H47.9 M48,6H0v36h48V6L48,6z"/>
	<path display="inline" fill="#3EA3FF" d="M44.9,3.1v41.7H3.2V3.1H44.9 M45,3H3v42h42V3L45,3z"/>
</g>
<g id="图层_6">
</g>
<g id="icon">
	<linearGradient id="SVGID_1_" gradientUnits="userSpaceOnUse" x1="24" y1="11.1786" x2="24" y2="39.3934">
		<stop  offset="0" style="stop-color:#667088;stop-opacity:0.25"/>
		<stop  offset="1" style="stop-color:#667088;stop-opacity:0"/>
	</linearGradient>
	<rect x="7" y="11" fill="url(#SVGID_1_)" width="34" height="30"/>
	<path fill="none" stroke="#757E93" stroke-width="2" stroke-linejoin="round" stroke-miterlimit="10" d="M16,6H6.9
		C6.4,6,6,6.4,6,6.9V16"/>
	<path fill="none" stroke="#757E93" stroke-width="2" stroke-linejoin="round" stroke-miterlimit="10" d="M32,6h9.1
		C41.6,6,42,6.4,42,6.9V16"/>
	<path fill="none" stroke="#757E93" stroke-width="2" stroke-linejoin="round" stroke-miterlimit="10" d="M42,32v9.1
		c0,0.5-0.4,0.9-0.9,0.9H32"/>
	<path fill="none" stroke="#757E93" stroke-width="2" stroke-linejoin="round" stroke-miterlimit="10" d="M6,32v9.1
		C6,41.6,6.4,42,6.9,42H16"/>
	<path fill="#757E93" d="M34.5,18.5c0-0.2,0-0.3-0.1-0.4c0,0,0-0.1,0-0.1c0,0,0,0,0-0.1c-0.1-0.1-0.2-0.2-0.3-0.3c0,0,0,0,0,0
		l-9.5-5.5c-0.3-0.2-0.7-0.2-1,0L14,17.6c0,0,0,0,0,0c-0.1,0.1-0.2,0.2-0.3,0.3c0,0,0,0,0,0.1c0,0,0,0.1,0,0.1
		c-0.1,0.1-0.1,0.3-0.1,0.4c0,0,0,0,0,0s0,0,0,0v11c0,0.4,0.2,0.7,0.5,0.9l9.5,5.5c0,0,0,0,0,0s0,0,0,0l0,0c0.1,0,0.1,0.1,0.2,0.1
		c0,0,0,0,0.1,0c0.1,0,0.2,0,0.3,0s0.2,0,0.3,0c0,0,0,0,0.1,0c0.1,0,0.1,0,0.2-0.1l0,0c0,0,0,0,0,0s0,0,0,0l9.5-5.5
		c0.3-0.2,0.5-0.5,0.5-0.9V18.5C34.5,18.5,34.5,18.5,34.5,18.5C34.5,18.5,34.5,18.5,34.5,18.5z M24,14.2l7.5,4.3L24,22.8l-7.5-4.3
		L24,14.2z M15.5,20.2l7.5,4.4v8.7l-7.5-4.3V20.2z M25,33.3v-8.7l7.5-4.4v8.7L25,33.3z"/>
</g>
<g id="装饰">
</g>
<g id="pic">
</g>
<g id="图层_5">
</g>
</svg>
