<?xml version="1.0" encoding="utf-8"?>
<!-- Generator: Adobe Illustrator 22.1.0, SVG Export Plug-In . SVG Version: 6.00 Build 0)  -->
<svg version="1.1" baseProfile="basic" xmlns="http://www.w3.org/2000/svg" xmlns:xlink="http://www.w3.org/1999/xlink" x="0px"
	 y="0px" viewBox="0 0 48 48" xml:space="preserve">
<g id="参考线" display="none">
</g>
<g id="背景">
</g>
<g id="辅助" display="none" opacity="0.73">
	<path display="inline" fill="#3EA3FF" d="M23,0.2c13.1,0,23.8,10.7,23.8,23.8S36.1,47.8,23,47.8S-0.8,37.1-0.8,24S9.9,0.2,23,0.2
		 M23,0C9.7,0-1,10.7-1,24S9.7,48,23,48s24-10.7,24-24S36.3,0,23,0L23,0z"/>
	<path display="inline" fill="#3EA3FF" d="M40.8,0.2v47.6H5.2V0.2H40.8 M41,0H5v48h36V0L41,0z"/>
	<path display="inline" fill="#3EA3FF" d="M46.8,6.2v35.6H-0.8V6.2H46.8 M47,6H-1v36h48V6L47,6z"/>
	<path display="inline" fill="#3EA3FF" d="M43.8,3.2v41.6H2.2V3.2H43.8 M44,3H2v42h42V3L44,3z"/>
</g>
<g id="图层_6">
</g>
<g id="icon">
	<linearGradient id="SVGID_1_" gradientUnits="userSpaceOnUse" x1="14.5023" y1="30.8454" x2="53.9891" y2="0.3329">
		<stop  offset="2.629950e-03" style="stop-color:#A3A9B8;stop-opacity:0.1"/>
		<stop  offset="1" style="stop-color:#A3A9B8"/>
	</linearGradient>
	<path opacity="0.9" fill="url(#SVGID_1_)" d="M7.7,11.1c-7.1,8.4-6.1,21,2.3,28.2c8.4,7.1,21,6.1,28.2-2.3s6.1-21-2.3-28.2L23,24
		L7.7,11.1z"/>
	<path fill="none" stroke="#757E93" stroke-width="2" stroke-linecap="round" stroke-linejoin="round" stroke-miterlimit="10" d="
		M29.8,5.2C27.7,4.4,25.4,4,23,4C12,4,3,13,3,24c0,6.2,2.8,11.7,7.1,15.3c1.8,1.5,3.8,2.7,6,3.5c2.1,0.8,4.4,1.2,6.8,1.2
		c11,0,20-9,20-20c0-6.2-2.8-11.7-7.1-15.3"/>
	
		<path opacity="0.8" fill="none" stroke="#757E93" stroke-width="2" stroke-linecap="round" stroke-linejoin="round" stroke-miterlimit="10" d="
		M29,36.8c1.5-0.7,2.8-1.6,4-2.8c5.5-5.5,5.5-14.5,0-20c-3.1-3.1-7.2-4.4-11.2-4.1c-1.6,0.1-3.2,0.6-4.7,1.3c-1.5,0.7-2.8,1.6-4,2.8
		c-5.5,5.5-5.5,14.5,0,20c3.1,3.1,7.2,4.4,11.2,4.1"/>
	
		<path opacity="0.4" fill="none" stroke="#757E93" stroke-width="2" stroke-linecap="round" stroke-linejoin="round" stroke-miterlimit="10" d="
		M15.8,21.4c-0.3,0.8-0.5,1.7-0.5,2.6c0,4.2,3.4,7.6,7.6,7.6c2.3,0,4.4-1.1,5.8-2.7c0.6-0.7,1-1.4,1.3-2.3c0.3-0.8,0.5-1.7,0.5-2.6
		c0-4.2-3.4-7.6-7.6-7.6c-2.3,0-4.4,1.1-5.8,2.7"/>
	
		<circle fill="#F7F8F9" stroke="#757E93" stroke-width="2" stroke-linecap="round" stroke-linejoin="round" stroke-miterlimit="10" cx="23" cy="24" r="2.5"/>
</g>
<g id="装饰">
</g>
<g id="pic">
</g>
<g id="图层_5">
</g>
</svg>
