<?xml version="1.0" encoding="utf-8"?>
<!-- Generator: Adobe Illustrator 22.1.0, SVG Export Plug-In . SVG Version: 6.00 Build 0)  -->
<svg version="1.1" baseProfile="basic" xmlns="http://www.w3.org/2000/svg" xmlns:xlink="http://www.w3.org/1999/xlink" x="0px"
	 y="0px" viewBox="0 0 48 48" xml:space="preserve">
<g id="参考线" display="none">
</g>
<g id="背景">
</g>
<g id="辅助" display="none" opacity="0.73">
	<path display="inline" fill="#3EA3FF" d="M24,0.2c13.1,0,23.8,10.7,23.8,23.8S37.1,47.8,24,47.8S0.2,37.1,0.2,24S10.9,0.2,24,0.2
		 M24,0C10.7,0,0,10.7,0,24s10.7,24,24,24s24-10.7,24-24S37.3,0,24,0L24,0z"/>
	<path display="inline" fill="#3EA3FF" d="M41.8,0.2v47.6H6.2V0.2H41.8 M42,0H6v48h36V0L42,0z"/>
	<path display="inline" fill="#3EA3FF" d="M47.8,6.2v35.6H0.2V6.2H47.8 M48,6H0v36h48V6L48,6z"/>
	<path display="inline" fill="#3EA3FF" d="M44.8,3.2v41.6H3.2V3.2H44.8 M45,3H3v42h42V3L45,3z"/>
</g>
<g id="图层_6">
</g>
<g id="icon">
	
		<path fill="#F7F8F9" stroke="#757E93" stroke-width="2" stroke-linecap="round" stroke-linejoin="round" stroke-miterlimit="10" d="
		M38,44H10c-0.6,0-1-0.4-1-1V5c0-0.6,0.4-1,1-1h28c0.6,0,1,0.4,1,1v38C39,43.6,38.6,44,38,44z"/>
	<linearGradient id="SVGID_1_" gradientUnits="userSpaceOnUse" x1="24" y1="42.75" x2="24" y2="17.4394">
		<stop  offset="1.198948e-03" style="stop-color:#667088;stop-opacity:0.3"/>
		<stop  offset="1" style="stop-color:#667088;stop-opacity:0"/>
	</linearGradient>
	<rect x="10" y="5" fill="url(#SVGID_1_)" width="28" height="38"/>
	<circle fill="#667088" cx="24.1" cy="23.5" r="1.3"/>
	
		<path opacity="0.8" fill="none" stroke="#667088" stroke-width="2" stroke-linecap="round" stroke-linejoin="round" stroke-miterlimit="10" d="
		M20.9,21.3c1.8-1.8,4.6-1.8,6.4,0"/>
	
		<path opacity="0.6" fill="none" stroke="#667088" stroke-width="2" stroke-linecap="round" stroke-linejoin="round" stroke-miterlimit="10" d="
		M18.8,19.2c2.9-2.9,7.7-2.9,10.6,0"/>
	
		<path opacity="0.4" fill="none" stroke="#667088" stroke-width="2" stroke-linecap="round" stroke-linejoin="round" stroke-miterlimit="10" d="
		M16.7,17.1c4.1-4.1,10.7-4.1,14.8,0"/>
	
		<line fill="none" stroke="#757E93" stroke-width="2" stroke-linecap="round" stroke-linejoin="round" stroke-miterlimit="10" x1="21" y1="39.5" x2="27" y2="39.5"/>
	
		<line fill="none" stroke="#757E93" stroke-width="2" stroke-linecap="round" stroke-linejoin="round" stroke-miterlimit="10" x1="9" y1="35" x2="39" y2="35"/>
</g>
<g id="装饰">
</g>
<g id="pic">
</g>
<g id="图层_5">
</g>
</svg>
