<?xml version="1.0" encoding="utf-8"?>
<!-- Generator: Adobe Illustrator 22.1.0, SVG Export Plug-In . SVG Version: 6.00 Build 0)  -->
<svg version="1.1" baseProfile="basic" xmlns="http://www.w3.org/2000/svg" xmlns:xlink="http://www.w3.org/1999/xlink" x="0px"
	 y="0px" viewBox="0 0 64 64" xml:space="preserve">
<g id="参考线" display="none">
</g>
<g id="背景" display="none">
	<rect display="inline" fill="#151616" width="64" height="64"/>
</g>
<g id="辅助" display="none" opacity="0.73">
	<path display="inline" fill="#3EA3FF" d="M32,0.2c17.5,0,31.8,14.3,31.8,31.8S49.5,63.8,32,63.8S0.2,49.5,0.2,32S14.5,0.2,32,0.2
		 M32,0C14.3,0,0,14.3,0,32s14.3,32,32,32s32-14.3,32-32S49.7,0,32,0L32,0z"/>
	<path display="inline" fill="#3EA3FF" d="M55.8,0.2v63.6H8.2V0.2H55.8 M56,0H8v64h48V0L56,0z"/>
	<path display="inline" fill="#3EA3FF" d="M63.8,8.2v47.6H0.2V8.2H63.8 M64,8H0v48h64V8L64,8z"/>
	<path display="inline" fill="#3EA3FF" d="M59.8,4.2v55.6H4.2V4.2H59.8 M60,4H4v56h56V4L60,4z"/>
</g>
<g id="图层_6">
</g>
<g id="icon">
	<linearGradient id="SVGID_1_" gradientUnits="userSpaceOnUse" x1="56" y1="31.9667" x2="45.9778" y2="31.9667">
		<stop  offset="0" style="stop-color:#667088;stop-opacity:0"/>
		<stop  offset="1" style="stop-color:#667088;stop-opacity:0.4"/>
	</linearGradient>
	<linearGradient id="SVGID_2_" gradientUnits="userSpaceOnUse" x1="45.25" y1="31.9667" x2="56.75" y2="31.9667">
		<stop  offset="0" style="stop-color:#667088"/>
		<stop  offset="1" style="stop-color:#292D35"/>
	</linearGradient>
	
		<polygon fill="url(#SVGID_1_)" stroke="url(#SVGID_2_)" stroke-width="1.5" stroke-linecap="round" stroke-linejoin="round" stroke-miterlimit="10" points="
		46,43 56,53 56,10.9 46,21 	"/>
	<linearGradient id="SVGID_3_" gradientUnits="userSpaceOnUse" x1="7.6667" y1="31.9667" x2="18" y2="31.9667">
		<stop  offset="0" style="stop-color:#667088;stop-opacity:0"/>
		<stop  offset="1" style="stop-color:#667088;stop-opacity:0.4"/>
	</linearGradient>
	<linearGradient id="SVGID_4_" gradientUnits="userSpaceOnUse" x1="7.25" y1="31.9667" x2="18.75" y2="31.9667">
		<stop  offset="0" style="stop-color:#667088"/>
		<stop  offset="1" style="stop-color:#667088"/>
	</linearGradient>
	
		<polygon fill="url(#SVGID_3_)" stroke="url(#SVGID_4_)" stroke-width="1.5" stroke-linecap="round" stroke-linejoin="round" stroke-miterlimit="10" points="
		18,43 8,53 8,10.9 18,21 	"/>
	<linearGradient id="SVGID_5_" gradientUnits="userSpaceOnUse" x1="32" y1="7.25" x2="32" y2="54.75">
		<stop  offset="0" style="stop-color:#D23634"/>
		<stop  offset="1" style="stop-color:#D23634;stop-opacity:0.4"/>
	</linearGradient>
	
		<line fill="none" stroke="url(#SVGID_5_)" stroke-width="1.5" stroke-linecap="round" stroke-linejoin="round" stroke-miterlimit="10" x1="32" y1="8" x2="32" y2="54"/>
	<linearGradient id="SVGID_6_" gradientUnits="userSpaceOnUse" x1="35.25" y1="32" x2="46.75" y2="32">
		<stop  offset="0" style="stop-color:#292D35"/>
		<stop  offset="1" style="stop-color:#667088"/>
	</linearGradient>
	
		<polygon fill="none" stroke="url(#SVGID_6_)" stroke-width="1.5" stroke-linecap="round" stroke-linejoin="round" stroke-miterlimit="10" points="
		36,43 46,53 46,11 36,21 	"/>
	<linearGradient id="SVGID_7_" gradientUnits="userSpaceOnUse" x1="17.25" y1="31.9667" x2="28.75" y2="31.9667">
		<stop  offset="0" style="stop-color:#667088"/>
		<stop  offset="1" style="stop-color:#292D35"/>
	</linearGradient>
	
		<polygon fill="none" stroke="url(#SVGID_7_)" stroke-width="1.5" stroke-linecap="round" stroke-linejoin="round" stroke-miterlimit="10" points="
		28,43 18,53 18,10.9 28,21 	"/>
</g>
<g id="装饰">
</g>
<g id="pic">
</g>
<g id="图层_5">
</g>
</svg>
