<?xml version="1.0" encoding="utf-8"?>
<!-- Generator: Adobe Illustrator 22.1.0, SVG Export Plug-In . SVG Version: 6.00 Build 0)  -->
<svg version="1.1" baseProfile="basic" xmlns="http://www.w3.org/2000/svg" xmlns:xlink="http://www.w3.org/1999/xlink" x="0px"
	 y="0px" viewBox="0 0 64 64" xml:space="preserve">
<g id="参考线" display="none">
</g>
<g id="背景" display="none">
	<rect display="inline" fill="#151616" width="64" height="64"/>
</g>
<g id="辅助" display="none" opacity="0.73">
	<path display="inline" fill="#3EA3FF" d="M32,0.2c17.5,0,31.8,14.3,31.8,31.8S49.5,63.8,32,63.8S0.2,49.5,0.2,32S14.5,0.2,32,0.2
		 M32,0C14.3,0,0,14.3,0,32s14.3,32,32,32s32-14.3,32-32S49.7,0,32,0L32,0z"/>
	<path display="inline" fill="#3EA3FF" d="M55.8,0.2v63.6H8.2V0.2H55.8 M56,0H8v64h48V0L56,0z"/>
	<path display="inline" fill="#3EA3FF" d="M63.8,8.2v47.6H0.2V8.2H63.8 M64,8H0v48h64V8L64,8z"/>
	<path display="inline" fill="#3EA3FF" d="M59.8,4.2v55.6H4.2V4.2H59.8 M60,4H4v56h56V4L60,4z"/>
</g>
<g id="图层_6">
</g>
<g id="icon">
	<path opacity="0.6" fill="none" stroke="#667088" stroke-width="1.5" stroke-miterlimit="10" d="M5,20H13c0.5,0,1,0.4,1,1V48
		c0,0.5-0.4,1-1,1H5c-0.5,0-1-0.4-1-1V21C4,20.4,4.4,20,5,20z"/>
	<linearGradient id="SVGID_1_" gradientUnits="userSpaceOnUse" x1="9" y1="20.9667" x2="9" y2="48.0333">
		<stop  offset="0" style="stop-color:#666F89;stop-opacity:0.4"/>
		<stop  offset="1" style="stop-color:#666F89;stop-opacity:0"/>
	</linearGradient>
	<polygon fill="url(#SVGID_1_)" points="5,48 5,21 13,21 13,48 	"/>
	<linearGradient id="SVGID_2_" gradientUnits="userSpaceOnUse" x1="55" y1="20.9667" x2="55" y2="48.0333">
		<stop  offset="0" style="stop-color:#666F89;stop-opacity:0.4"/>
		<stop  offset="1" style="stop-color:#666F89;stop-opacity:0"/>
	</linearGradient>
	<polygon fill="url(#SVGID_2_)" points="51,48 51,21 59,21 59,48 	"/>
	<path opacity="0.6" fill="none" stroke="#667088" stroke-width="1.5" stroke-miterlimit="10" d="M51,20H59c0.5,0,1,0.4,1,1V48
		c0,0.5-0.4,1-1,1H51c-0.5,0-1-0.4-1-1V21C50,20.4,50.4,20,51,20z"/>
	<path fill="none" stroke="#5E677D" stroke-width="1.5" stroke-miterlimit="10" d="M15,10H49c0.6,0,1,0.5,1,1V53c0,0.6-0.5,1-1,1H15
		c-0.6,0-1-0.5-1-1V11C14,10.5,14.5,10,15,10z"/>
	
		<line opacity="0.4" fill="none" stroke="#667088" stroke-width="1.5" stroke-linejoin="round" stroke-miterlimit="10" x1="37" y1="37" x2="21" y2="37"/>
	
		<line opacity="0.6" fill="none" stroke="#667088" stroke-width="1.5" stroke-linejoin="round" stroke-miterlimit="10" x1="43" y1="42" x2="21" y2="42"/>
	<line opacity="0.8" fill="none" stroke="#667088" stroke-width="1.5" stroke-miterlimit="10" x1="43" y1="47" x2="21" y2="47"/>
	
		<rect x="22" y="18" fill="none" stroke="#DD433B" stroke-width="1.5" stroke-linecap="round" stroke-linejoin="round" stroke-miterlimit="10" width="5" height="5"/>
	
		<rect x="31" y="18" opacity="0.6" fill="none" stroke="#DD433B" stroke-width="1.5" stroke-linecap="round" stroke-linejoin="round" stroke-miterlimit="10" width="5" height="5"/>
</g>
<g id="装饰">
</g>
<g id="pic">
</g>
<g id="图层_5">
</g>
</svg>
