<?xml version="1.0" encoding="utf-8"?>
<!-- Generator: Adobe Illustrator 22.1.0, SVG Export Plug-In . SVG Version: 6.00 Build 0)  -->
<svg version="1.1" baseProfile="basic" xmlns="http://www.w3.org/2000/svg" xmlns:xlink="http://www.w3.org/1999/xlink" x="0px"
	 y="0px" viewBox="0 0 48 48" xml:space="preserve">
<g id="参考线" display="none">
</g>
<g id="背景">
</g>
<g id="辅助" display="none" opacity="0.73">
	<path display="inline" fill="#3EA3FF" d="M24,0.2c13.1,0,23.8,10.7,23.8,23.8S37.1,47.8,24,47.8S0.2,37.1,0.2,24S10.9,0.2,24,0.2
		 M24,0C10.7,0,0,10.7,0,24s10.7,24,24,24s24-10.7,24-24S37.3,0,24,0L24,0z"/>
	<path display="inline" fill="#3EA3FF" d="M41.8,0.2v47.6H6.2V0.2H41.8 M42,0H6v48h36V0L42,0z"/>
	<path display="inline" fill="#3EA3FF" d="M47.8,6.2v35.6H0.2V6.2H47.8 M48,6H0v36h48V6L48,6z"/>
	<path display="inline" fill="#3EA3FF" d="M44.8,3.2v41.6H3.2V3.2H44.8 M45,3H3v42h42V3L45,3z"/>
</g>
<g id="图层_6">
</g>
<g id="icon">
	<g>
		
			<polygon fill="#FFFFFF" stroke="#757E93" stroke-width="2" stroke-linecap="round" stroke-linejoin="round" stroke-miterlimit="10" points="
			44,32 24.1,43.6 4,32 23.9,20.4 		"/>
	</g>
	<g>
		
			<polygon fill="#FFFFFF" stroke="#757E93" stroke-width="2" stroke-linecap="round" stroke-linejoin="round" stroke-miterlimit="10" points="
			44,24 24.1,35.6 4,24 23.9,12.4 		"/>
	</g>
	<g>
		
			<polygon fill="#F7F8F9" stroke="#757E93" stroke-width="2" stroke-linecap="round" stroke-linejoin="round" stroke-miterlimit="10" points="
			44,16 24.1,27.6 4,16 23.9,4.4 		"/>
	</g>
	<linearGradient id="SVGID_1_" gradientUnits="userSpaceOnUse" x1="24" y1="44.25" x2="24" y2="15.7401">
		<stop  offset="0" style="stop-color:#667088;stop-opacity:0.3"/>
		<stop  offset="0.9988" style="stop-color:#667088;stop-opacity:0.1"/>
	</linearGradient>
	<polygon fill="url(#SVGID_1_)" points="4,16 24.1,27.6 44,16 44,32 24.1,43.6 4,32 	"/>
</g>
<g id="装饰">
</g>
<g id="pic">
</g>
<g id="图层_5">
</g>
</svg>
