<?xml version="1.0" encoding="utf-8"?>
<!-- Generator: Adobe Illustrator 22.1.0, SVG Export Plug-In . SVG Version: 6.00 Build 0)  -->
<svg version="1.1" baseProfile="basic" xmlns="http://www.w3.org/2000/svg" xmlns:xlink="http://www.w3.org/1999/xlink" x="0px"
	 y="0px" viewBox="0 0 384 384" xml:space="preserve">
<g id="占位符" opacity="0">
	<rect opacity="0" fill="#F7F8F9" width="384" height="384"/>
</g>
<g id="辅助" display="none">
</g>
<g id="基座光束">
</g>
<g id="基座">
</g>
<g id="实物">
	<linearGradient id="SVGID_1_" gradientUnits="userSpaceOnUse" x1="191.9431" y1="226" x2="191.9431" y2="211.4226">
		<stop  offset="0" style="stop-color:#E0E2E7"/>
		<stop  offset="0.9996" style="stop-color:#EFF0F3;stop-opacity:0.6"/>
	</linearGradient>
	<linearGradient id="SVGID_2_" gradientUnits="userSpaceOnUse" x1="191.9431" y1="226.2226" x2="191.9431" y2="192.1371">
		<stop  offset="0" style="stop-color:#A3A9B8"/>
		<stop  offset="0.9996" style="stop-color:#A3A9B8;stop-opacity:0.2"/>
	</linearGradient>
	
		<path fill="url(#SVGID_1_)" stroke="url(#SVGID_2_)" stroke-width="1.5" stroke-linecap="round" stroke-linejoin="round" stroke-miterlimit="10" d="
		M230.4,193.8c0,0.2,0,0.4,0,0.6c0,0.2,0,0.3-0.1,0.5c0,0.2-0.1,0.4-0.1,0.6c0,0.2-0.1,0.3-0.1,0.5c0,0.2-0.1,0.4-0.1,0.6
		c0,0.2-0.1,0.3-0.1,0.5c-0.1,0.2-0.1,0.4-0.2,0.6c-0.1,0.2-0.1,0.3-0.2,0.5c-0.1,0.2-0.2,0.4-0.2,0.6c-0.1,0.2-0.1,0.3-0.2,0.5
		c-0.1,0.2-0.2,0.4-0.3,0.6c-0.1,0.2-0.2,0.3-0.3,0.5c-0.1,0.2-0.3,0.5-0.4,0.7c-0.1,0.1-0.2,0.3-0.3,0.4c-0.2,0.2-0.4,0.5-0.5,0.7
		c-0.1,0.1-0.2,0.2-0.2,0.3c-0.3,0.4-0.6,0.8-1,1.2c-0.1,0.1-0.2,0.2-0.3,0.3c-0.3,0.3-0.6,0.6-0.9,0.9c-0.1,0.1-0.3,0.3-0.4,0.4
		c-0.2,0.2-0.4,0.3-0.6,0.5c-0.2,0.1-0.4,0.3-0.5,0.4c-0.2,0.2-0.4,0.3-0.6,0.5c-0.2,0.1-0.4,0.3-0.6,0.4c-0.2,0.2-0.4,0.3-0.6,0.5
		c-0.2,0.1-0.4,0.3-0.6,0.4c-0.2,0.1-0.5,0.3-0.7,0.4c-0.3,0.2-0.6,0.4-0.9,0.5c-0.6,0.3-1.2,0.7-1.8,1c-0.2,0.1-0.3,0.2-0.5,0.3
		c-0.5,0.2-0.9,0.5-1.4,0.7c-0.2,0.1-0.3,0.1-0.5,0.2c-0.6,0.3-1.3,0.5-1.9,0.8c-0.1,0-0.2,0.1-0.4,0.1c-0.5,0.2-1.1,0.4-1.7,0.6
		c-0.2,0.1-0.5,0.2-0.7,0.2c-0.3,0.1-0.6,0.2-0.9,0.3c-0.3,0.1-0.5,0.2-0.8,0.2c-0.3,0.1-0.6,0.2-1,0.3c-0.3,0.1-0.5,0.1-0.8,0.2
		c-0.3,0.1-0.7,0.2-1,0.2c-0.3,0.1-0.5,0.1-0.8,0.2c-0.3,0.1-0.7,0.1-1,0.2c-0.3,0-0.5,0.1-0.8,0.1c-0.7,0.1-1.4,0.2-2.2,0.3
		c-0.1,0-0.2,0-0.3,0c-0.6,0.1-1.3,0.2-1.9,0.2c-0.2,0-0.5,0-0.7,0.1c-0.4,0-0.8,0.1-1.2,0.1c-0.3,0-0.5,0-0.8,0.1
		c-0.4,0-0.9,0-1.3,0.1c-0.2,0-0.5,0-0.7,0c-0.4,0-0.8,0-1.1,0c-0.3,0-0.5,0-0.8,0c-0.4,0-0.8,0-1.2,0c-0.2,0-0.5,0-0.7,0
		c-0.4,0-0.7,0-1.1,0c-0.3,0-0.5,0-0.8,0c-0.4,0-0.8-0.1-1.2-0.1c-0.2,0-0.4,0-0.7,0c-0.5,0-1-0.1-1.5-0.1c-0.1,0-0.2,0-0.3,0
		c-0.6-0.1-1.2-0.1-1.8-0.2c-0.1,0-0.2,0-0.3,0c-0.5-0.1-1-0.2-1.6-0.2c-0.2,0-0.4-0.1-0.6-0.1c-0.4-0.1-0.8-0.1-1.2-0.2
		c-0.2,0-0.4-0.1-0.6-0.1c-0.4-0.1-0.9-0.2-1.3-0.3c-0.2-0.1-0.5-0.1-0.7-0.2c-0.4-0.1-0.8-0.2-1.2-0.3c-0.2-0.1-0.4-0.1-0.7-0.2
		c-0.6-0.2-1.2-0.4-1.8-0.6c-0.1,0-0.2-0.1-0.3-0.1c-0.7-0.2-1.4-0.5-2-0.7c-0.1-0.1-0.3-0.1-0.4-0.2c-0.9-0.3-1.7-0.7-2.6-1.1
		c-0.1,0-0.2-0.1-0.2-0.1c-0.9-0.4-1.7-0.9-2.5-1.3c-7.6-4.4-11.4-10.1-11.4-15.9l0,10.2c0,5.7,3.8,11.5,11.4,15.9
		c0.8,0.5,1.7,0.9,2.5,1.3c0.1,0,0.2,0.1,0.2,0.1c0.8,0.4,1.7,0.8,2.6,1.1c0.1,0,0.1,0.1,0.2,0.1c0.1,0,0.1,0,0.2,0.1
		c0.7,0.3,1.3,0.5,2,0.7c0.1,0,0.2,0.1,0.3,0.1c0.6,0.2,1.2,0.4,1.8,0.6c0.1,0,0.2,0.1,0.3,0.1c0.1,0,0.2,0.1,0.4,0.1
		c0.4,0.1,0.8,0.2,1.2,0.3c0.2,0.1,0.5,0.1,0.7,0.2c0.4,0.1,0.9,0.2,1.3,0.3c0.2,0,0.3,0.1,0.5,0.1c0,0,0.1,0,0.1,0
		c0.4,0.1,0.8,0.2,1.2,0.2c0.2,0,0.4,0.1,0.7,0.1c0.5,0.1,1,0.2,1.6,0.2c0.1,0,0.2,0,0.3,0c0,0,0,0,0,0c0.6,0.1,1.2,0.2,1.8,0.2
		c0.1,0,0.3,0,0.4,0c0.5,0.1,1,0.1,1.5,0.1c0,0,0,0,0,0c0.2,0,0.4,0,0.6,0c0.4,0,0.8,0.1,1.2,0.1c0.3,0,0.5,0,0.8,0
		c0.4,0,0.7,0,1.1,0c0,0,0.1,0,0.1,0c0.2,0,0.4,0,0.6,0c0.4,0,0.8,0,1.2,0c0.3,0,0.5,0,0.8,0c0.4,0,0.8,0,1.1,0c0.1,0,0.1,0,0.2,0
		c0.2,0,0.3,0,0.5,0c0.4,0,0.9,0,1.3-0.1c0.3,0,0.5,0,0.8-0.1c0.4,0,0.8-0.1,1.2-0.1c0.1,0,0.3,0,0.4,0c0.1,0,0.2,0,0.3,0
		c0.6-0.1,1.3-0.1,1.9-0.2c0.1,0,0.2,0,0.3,0c0.7-0.1,1.5-0.2,2.2-0.3c0.1,0,0.1,0,0.2,0c0.2,0,0.4-0.1,0.6-0.1
		c0.3-0.1,0.7-0.1,1-0.2c0.3-0.1,0.5-0.1,0.8-0.2c0.3-0.1,0.7-0.1,1-0.2c0.3-0.1,0.5-0.1,0.8-0.2c0.3-0.1,0.6-0.2,1-0.3
		c0.3-0.1,0.5-0.2,0.8-0.2c0.3-0.1,0.6-0.2,0.9-0.3c0.1,0,0.3-0.1,0.4-0.1c0.1,0,0.2-0.1,0.3-0.1c0.6-0.2,1.1-0.4,1.7-0.6
		c0.1,0,0.2-0.1,0.3-0.1c0.7-0.2,1.3-0.5,1.9-0.8c0.2-0.1,0.3-0.1,0.5-0.2c0.5-0.2,1-0.4,1.4-0.7c0.2-0.1,0.4-0.2,0.5-0.3
		c0.6-0.3,1.2-0.6,1.8-1c0.2-0.1,0.3-0.2,0.5-0.3c0.1-0.1,0.3-0.2,0.4-0.3c0.2-0.1,0.5-0.3,0.7-0.4c0.2-0.1,0.4-0.3,0.6-0.4
		c0.2-0.2,0.4-0.3,0.7-0.5c0.2-0.1,0.4-0.3,0.6-0.4c0.2-0.2,0.4-0.3,0.6-0.5c0.2-0.1,0.4-0.3,0.5-0.4c0.2-0.2,0.4-0.3,0.6-0.5
		c0.1-0.1,0.2-0.1,0.2-0.2c0.1-0.1,0.1-0.1,0.2-0.2c0.3-0.3,0.6-0.6,0.9-0.9c0.1-0.1,0.2-0.2,0.3-0.3c0.4-0.4,0.7-0.8,1-1.2
		c0,0,0,0,0,0c0.1-0.1,0.1-0.2,0.2-0.3c0.2-0.2,0.4-0.5,0.5-0.7c0.1-0.1,0.2-0.3,0.3-0.4c0.1-0.2,0.3-0.5,0.4-0.7
		c0-0.1,0.1-0.1,0.1-0.2c0.1-0.1,0.1-0.2,0.1-0.3c0.1-0.2,0.2-0.4,0.3-0.6c0.1-0.2,0.2-0.3,0.2-0.5c0.1-0.2,0.2-0.4,0.2-0.6
		c0-0.1,0.1-0.2,0.1-0.3c0-0.1,0.1-0.2,0.1-0.2c0.1-0.2,0.1-0.4,0.2-0.6c0.1-0.2,0.1-0.3,0.1-0.5c0.1-0.2,0.1-0.4,0.1-0.6
		c0-0.1,0.1-0.2,0.1-0.3c0-0.1,0-0.1,0-0.2c0-0.2,0.1-0.4,0.1-0.6c0-0.2,0-0.3,0.1-0.5c0-0.2,0-0.4,0-0.6c0-0.1,0-0.2,0-0.3
		c0-0.1,0-0.2,0-0.3l0-10.2C230.4,193.3,230.4,193.6,230.4,193.8z"/>
	<g>
		<linearGradient id="SVGID_3_" gradientUnits="userSpaceOnUse" x1="192" y1="213.0106" x2="192" y2="171.7729">
			<stop  offset="0" style="stop-color:#E0E2E7"/>
			<stop  offset="0.9988" style="stop-color:#F7F8F9;stop-opacity:0"/>
		</linearGradient>
		<linearGradient id="SVGID_4_" gradientUnits="userSpaceOnUse" x1="192" y1="216.0377" x2="192" y2="169.9486">
			<stop  offset="0" style="stop-color:#A3A9B8"/>
			<stop  offset="0.9996" style="stop-color:#A3A9B8;stop-opacity:0.2"/>
		</linearGradient>
		
			<path fill="url(#SVGID_3_)" stroke="url(#SVGID_4_)" stroke-width="1.5" stroke-linecap="round" stroke-linejoin="round" stroke-miterlimit="10" d="
			M219.1,177.2c15.1,8.7,15.2,22.8,0.2,31.5c-15,8.7-39.4,8.7-54.4,0c-15.1-8.7-15.2-22.8-0.2-31.5
			C179.7,168.5,204,168.5,219.1,177.2z"/>
	</g>
</g>
<g id="装饰">
</g>
<g id="光束1">
	<linearGradient id="SVGID_5_" gradientUnits="userSpaceOnUse" x1="191.9431" y1="42.6249" x2="191.9431" y2="143.1646">
		<stop  offset="7.928527e-04" style="stop-color:#E89A99;stop-opacity:0.2"/>
		<stop  offset="1" style="stop-color:#DF7270;stop-opacity:0"/>
	</linearGradient>
	<circle fill="url(#SVGID_5_)" cx="191.9" cy="192.6" r="156.6"/>
	<linearGradient id="SVGID_6_" gradientUnits="userSpaceOnUse" x1="191.9431" y1="311.8443" x2="191.9431" y2="73.2978">
		<stop  offset="0" style="stop-color:#E48684"/>
		<stop  offset="0.9971" style="stop-color:#E48684"/>
	</linearGradient>
	<circle fill="none" stroke="url(#SVGID_6_)" stroke-miterlimit="10" stroke-dasharray="2,2" cx="191.9" cy="192.6" r="118.8"/>
	<linearGradient id="SVGID_7_" gradientUnits="userSpaceOnUse" x1="191.9431" y1="278" x2="191.9431" y2="205.9931">
		<stop  offset="1.643719e-03" style="stop-color:#A3A9B8;stop-opacity:0.25"/>
		<stop  offset="0.9996" style="stop-color:#A3A9B8;stop-opacity:0"/>
	</linearGradient>
	
		<circle fill="url(#SVGID_7_)" stroke="#B2B7C1" stroke-width="1.5" stroke-linecap="round" stroke-linejoin="round" stroke-miterlimit="10" cx="191.9" cy="196.8" r="77.1"/>
	<g>
		<linearGradient id="SVGID_8_" gradientUnits="userSpaceOnUse" x1="209.6039" y1="196.5389" x2="209.6039" y2="156.7541">
			<stop  offset="0" style="stop-color:#E89A99"/>
			<stop  offset="1" style="stop-color:#E07270"/>
		</linearGradient>
		<rect x="204.4" y="156.8" fill="url(#SVGID_8_)" width="10.5" height="39.8"/>
		<linearGradient id="SVGID_9_" gradientUnits="userSpaceOnUse" x1="191.8242" y1="196.4509" x2="191.8242" y2="162.0353">
			<stop  offset="0" style="stop-color:#E89A99"/>
			<stop  offset="1" style="stop-color:#E07270"/>
		</linearGradient>
		<rect x="186.6" y="162" fill="url(#SVGID_9_)" width="10.5" height="34.4"/>
		<linearGradient id="SVGID_10_" gradientUnits="userSpaceOnUse" x1="174.3961" y1="196.5389" x2="174.3961" y2="171.1013">
			<stop  offset="0" style="stop-color:#E89A99"/>
			<stop  offset="1" style="stop-color:#E07270"/>
		</linearGradient>
		<rect x="169.2" y="171.1" fill="url(#SVGID_10_)" width="10.5" height="25.4"/>
	</g>
	<linearGradient id="SVGID_11_" gradientUnits="userSpaceOnUse" x1="114.1694" y1="197.7103" x2="147.2888" y2="197.7103">
		<stop  offset="0" style="stop-color:#E48684"/>
		<stop  offset="0.9971" style="stop-color:#E48684"/>
	</linearGradient>
	
		<line fill="none" stroke="url(#SVGID_11_)" stroke-miterlimit="10" stroke-dasharray="2,2" x1="147.3" y1="197.7" x2="114.2" y2="197.7"/>
	<linearGradient id="SVGID_12_" gradientUnits="userSpaceOnUse" x1="236.0264" y1="197.7103" x2="269.8306" y2="197.7103">
		<stop  offset="0" style="stop-color:#E48684"/>
		<stop  offset="0.9971" style="stop-color:#E48684"/>
	</linearGradient>
	
		<line fill="none" stroke="url(#SVGID_12_)" stroke-miterlimit="10" stroke-dasharray="2,2" x1="236" y1="197.7" x2="269.8" y2="197.7"/>
	<g>
		<linearGradient id="SVGID_13_" gradientUnits="userSpaceOnUse" x1="107.6791" y1="84.3042" x2="159.3756" y2="84.3042">
			<stop  offset="0" style="stop-color:#E48684"/>
			<stop  offset="0.9971" style="stop-color:#E48684"/>
		</linearGradient>
		
			<line fill="none" stroke="url(#SVGID_13_)" stroke-miterlimit="10" stroke-dasharray="2,2" x1="158.9" y1="127.1" x2="111.6" y2="41.5"/>
		<g>
			<linearGradient id="SVGID_14_" gradientUnits="userSpaceOnUse" x1="107.6791" y1="40.1813" x2="159.3756" y2="40.1813">
				<stop  offset="0" style="stop-color:#E48684"/>
				<stop  offset="0.9971" style="stop-color:#E48684"/>
			</linearGradient>
			<polygon fill="url(#SVGID_14_)" points="116.7,40.3 108.1,35.2 107.9,45.2 			"/>
		</g>
	</g>
	<g>
		<linearGradient id="SVGID_15_" gradientUnits="userSpaceOnUse" x1="226.5664" y1="84.3026" x2="278.3766" y2="84.3026">
			<stop  offset="0" style="stop-color:#E48684"/>
			<stop  offset="0.9971" style="stop-color:#E48684"/>
		</linearGradient>
		
			<line fill="none" stroke="url(#SVGID_15_)" stroke-miterlimit="10" stroke-dasharray="2,2" x1="227" y1="127.1" x2="274.5" y2="41.5"/>
		<g>
			<linearGradient id="SVGID_16_" gradientUnits="userSpaceOnUse" x1="226.5664" y1="40.1814" x2="278.3767" y2="40.1814">
				<stop  offset="0" style="stop-color:#E48684"/>
				<stop  offset="0.9971" style="stop-color:#E48684"/>
			</linearGradient>
			<polygon fill="url(#SVGID_16_)" points="278.1,45.2 277.9,35.2 269.4,40.3 			"/>
		</g>
	</g>
	<g>
		<linearGradient id="SVGID_17_" gradientUnits="userSpaceOnUse" x1="261.6512" y1="138.7233" x2="354.1856" y2="138.7233">
			<stop  offset="0" style="stop-color:#E48684"/>
			<stop  offset="0.9971" style="stop-color:#E48684"/>
		</linearGradient>
		
			<line fill="none" stroke="url(#SVGID_17_)" stroke-miterlimit="10" stroke-dasharray="2,2" x1="261.9" y1="164.2" x2="353.9" y2="113.2"/>
		<linearGradient id="SVGID_18_" gradientUnits="userSpaceOnUse" x1="29.7009" y1="138.7233" x2="122.3491" y2="138.7233">
			<stop  offset="0" style="stop-color:#E48684"/>
			<stop  offset="0.9971" style="stop-color:#E48684"/>
		</linearGradient>
		
			<line fill="none" stroke="url(#SVGID_18_)" stroke-miterlimit="10" stroke-dasharray="2,2" x1="122.1" y1="164.2" x2="29.9" y2="113.2"/>
	</g>
	<g>
		<linearGradient id="SVGID_19_" gradientUnits="userSpaceOnUse" x1="261.6516" y1="255.9307" x2="354.1852" y2="255.9307">
			<stop  offset="0" style="stop-color:#E48684"/>
			<stop  offset="0.9971" style="stop-color:#E48684"/>
		</linearGradient>
		
			<line fill="none" stroke="url(#SVGID_19_)" stroke-miterlimit="10" stroke-dasharray="2,2" x1="261.9" y1="232.2" x2="347.7" y2="279.7"/>
		<g>
			<linearGradient id="SVGID_20_" gradientUnits="userSpaceOnUse" x1="261.6516" y1="278.9547" x2="354.1852" y2="278.9547">
				<stop  offset="0" style="stop-color:#E48684"/>
				<stop  offset="0.9971" style="stop-color:#E48684"/>
			</linearGradient>
			<polygon fill="url(#SVGID_20_)" points="344,283.3 353.9,283.1 348.8,274.6 			"/>
		</g>
	</g>
	<g>
		<linearGradient id="SVGID_21_" gradientUnits="userSpaceOnUse" x1="29.7013" y1="255.9323" x2="122.3487" y2="255.9323">
			<stop  offset="0" style="stop-color:#E48684"/>
			<stop  offset="0.9971" style="stop-color:#E48684"/>
		</linearGradient>
		
			<line fill="none" stroke="url(#SVGID_21_)" stroke-miterlimit="10" stroke-dasharray="2,2" x1="122.1" y1="232.2" x2="36.2" y2="279.7"/>
		<g>
			<linearGradient id="SVGID_22_" gradientUnits="userSpaceOnUse" x1="29.7013" y1="278.9587" x2="122.3487" y2="278.9587">
				<stop  offset="0" style="stop-color:#E48684"/>
				<stop  offset="0.9971" style="stop-color:#E48684"/>
			</linearGradient>
			<polygon fill="url(#SVGID_22_)" points="35.1,274.6 29.9,283.1 39.9,283.3 			"/>
		</g>
	</g>
	<g>
		<linearGradient id="XMLID_11_" gradientUnits="userSpaceOnUse" x1="309.46" y1="171.4797" x2="309.46" y2="211.0978">
			<stop  offset="0" style="stop-color:#E07270"/>
			<stop  offset="1" style="stop-color:#E89A99"/>
		</linearGradient>
		<circle id="XMLID_31_" fill="url(#XMLID_11_)" cx="309.5" cy="196.8" r="25.5"/>
		<path fill="#FCFCFC" d="M295.9,210.7H323c0-6.9-3.2-12.9-7.9-15.6c2.3-1.7,3.8-4.5,3.8-7.6c0-0.3,0-0.6,0-0.9
			c-0.8,2.1-2.6,5.6-5,6.7c-0.7,0.3-1.3,0.4-2,0.4c-0.6,0-1.2-0.1-1.7-0.3c-0.3,0.5-0.9,0.9-1.6,0.9c-1.1,0-1.9-0.9-1.9-1.9
			s0.9-1.9,1.9-1.9c1.1,0,1.9,0.9,1.9,1.9c0,0.1,0,0.2,0,0.2c0.9,0.3,2,0.3,3-0.1c2.8-1.3,4.8-6.8,5.1-7.6c-1.1-4-4.8-6.9-9.1-6.9
			c-5.2,0-9.5,4.2-9.5,9.5c0,3.1,1.5,5.8,3.8,7.6C299.1,197.8,295.9,203.8,295.9,210.7z"/>
	</g>
	<g>
		<linearGradient id="XMLID_12_" gradientUnits="userSpaceOnUse" x1="74.7686" y1="172.6797" x2="74.7686" y2="205.6851">
			<stop  offset="0" style="stop-color:#E07270"/>
			<stop  offset="1" style="stop-color:#E89A99"/>
		</linearGradient>
		<circle id="XMLID_30_" fill="url(#XMLID_12_)" cx="74.8" cy="196.8" r="25.5"/>
		<path fill="#FFFFFF" d="M61.1,211.7h27.1c0-6.9-3.2-12.9-7.9-15.6c2.3-1.7,3.8-4.5,3.8-7.6c0-5.2-4.2-9.5-9.5-9.5
			c-5.2,0-9.5,4.2-9.5,9.5c0,3.1,1.5,5.8,3.8,7.6C64.3,198.8,61.1,204.8,61.1,211.7z M67.9,191.9c-0.4,0-0.8-0.4-0.8-0.8v-2.6
			c0-0.4,0.4-0.8,0.8-0.8h4.6c0.4,0,0.8,0.4,0.8,0.8v0.9h2.3v-0.9c0-0.4,0.4-0.8,0.8-0.8h4.6c0.5,0,0.8,0.4,0.8,0.8v2.6
			c0,0.4-0.3,0.8-0.8,0.8h-4.6c-0.4,0-0.8-0.4-0.8-0.8v-0.9h-2.3v0.9c0,0.4-0.3,0.8-0.8,0.8H67.9z"/>
	</g>
	<g>
		<linearGradient id="SVGID_23_" gradientUnits="userSpaceOnUse" x1="56.753" y1="82.2823" x2="113.3915" y2="82.2823">
			<stop  offset="0" style="stop-color:#E48684"/>
			<stop  offset="0.9971" style="stop-color:#E48684"/>
		</linearGradient>
		<path fill="none" stroke="url(#SVGID_23_)" stroke-miterlimit="10" stroke-dasharray="2,2" d="M61,106.8
			c13.4-20,31.2-36.8,52.1-48.9"/>
		<g>
			<linearGradient id="SVGID_24_" gradientUnits="userSpaceOnUse" x1="56.753" y1="107.8766" x2="113.3915" y2="107.8766">
				<stop  offset="0" style="stop-color:#E48684"/>
				<stop  offset="0.9971" style="stop-color:#E48684"/>
			</linearGradient>
			<polygon fill="url(#SVGID_24_)" points="66.1,108.3 57.2,112.9 57.7,102.9 			"/>
		</g>
	</g>
	<g>
		<linearGradient id="SVGID_25_" gradientUnits="userSpaceOnUse" x1="269.8114" y1="82.6628" x2="327.1355" y2="82.6628">
			<stop  offset="0" style="stop-color:#E48684"/>
			<stop  offset="0.9971" style="stop-color:#E48684"/>
		</linearGradient>
		<path fill="none" stroke="url(#SVGID_25_)" stroke-miterlimit="10" stroke-dasharray="2,2" d="M270.1,57.8
			c21.3,12.2,39.4,29.4,52.9,49.9"/>
		<g>
			<linearGradient id="SVGID_26_" gradientUnits="userSpaceOnUse" x1="269.8114" y1="108.7883" x2="327.1355" y2="108.7883">
				<stop  offset="0" style="stop-color:#E48684"/>
				<stop  offset="0.9971" style="stop-color:#E48684"/>
			</linearGradient>
			<polygon fill="url(#SVGID_26_)" points="317.9,109.2 326.7,113.8 326.3,103.8 			"/>
		</g>
	</g>
	<g>
		<linearGradient id="SVGID_27_" gradientUnits="userSpaceOnUse" x1="66.4304" y1="320.2055" x2="317.4535" y2="320.2055">
			<stop  offset="0" style="stop-color:#E48684"/>
			<stop  offset="0.9971" style="stop-color:#E48684"/>
		</linearGradient>
		<path fill="none" stroke="url(#SVGID_27_)" stroke-miterlimit="10" stroke-dasharray="2,2" d="M312.6,292.2
			c-28.7,34.6-71.9,56.6-120.4,56.6c-48.8,0-92.4-22.4-121-57.4"/>
		<g>
			<linearGradient id="SVGID_28_" gradientUnits="userSpaceOnUse" x1="66.4304" y1="291.4905" x2="317.4535" y2="291.4905">
				<stop  offset="0" style="stop-color:#E48684"/>
				<stop  offset="0.9971" style="stop-color:#E48684"/>
			</linearGradient>
			<polygon fill="url(#SVGID_28_)" points="307.8,290.2 317.1,286.6 315.6,296.4 			"/>
		</g>
		<g>
			<linearGradient id="SVGID_29_" gradientUnits="userSpaceOnUse" x1="66.4304" y1="290.6964" x2="317.4535" y2="290.6964">
				<stop  offset="0" style="stop-color:#E48684"/>
				<stop  offset="0.9971" style="stop-color:#E48684"/>
			</linearGradient>
			<polygon fill="url(#SVGID_29_)" points="76.1,289.5 66.8,285.8 68.3,295.6 			"/>
		</g>
	</g>
	<linearGradient id="SVGID_30_" gradientUnits="userSpaceOnUse" x1="114.1694" y1="201.2103" x2="114.1694" y2="194.2103">
		<stop  offset="0" style="stop-color:#E89A99"/>
		<stop  offset="1" style="stop-color:#E07270"/>
	</linearGradient>
	<circle fill="url(#SVGID_30_)" cx="114.2" cy="197.7" r="3.5"/>
	<linearGradient id="SVGID_31_" gradientUnits="userSpaceOnUse" x1="269.0316" y1="201.2103" x2="269.0316" y2="194.2103">
		<stop  offset="0" style="stop-color:#E89A99"/>
		<stop  offset="1" style="stop-color:#E07270"/>
	</linearGradient>
	<circle fill="url(#SVGID_31_)" cx="269" cy="197.7" r="3.5"/>
	<g>
		<linearGradient id="XMLID_13_" gradientUnits="userSpaceOnUse" x1="193.5103" y1="50.2082" x2="193.5103" y2="87.4082">
			<stop  offset="0" style="stop-color:#E07270"/>
			<stop  offset="1" style="stop-color:#E89A99"/>
		</linearGradient>
		<circle id="XMLID_29_" fill="url(#XMLID_13_)" cx="193.5" cy="76.1" r="25.5"/>
		<path fill="#FFFFFF" d="M179.9,90.4h27.1c0-6.9-3.3-12.9-8-15.6c2.3-1.7,3.9-4.5,3.9-7.6c0-5.2-4.2-9.5-9.5-9.5s-9.5,4.2-9.5,9.5
			c0,3.1,1.5,5.9,3.9,7.6c0,0,0,0,0,0C183.2,77.5,179.9,83.4,179.9,90.4z M190.7,77.8l0.9-1.7h1.9h1.8l0.9,1.7l-1.7,1.3l1.7,8.9
			l-2.8,2.2l-2.8-2.2l1.7-8.9L190.7,77.8z"/>
	</g>
</g>
<g id="粒子">
</g>
</svg>
